<?xml version="1.0" standalone="no"?>
<!DOCTYPE svg PUBLIC "-//W3C//DTD SVG 20010904//EN"
 "http://www.w3.org/TR/2001/REC-SVG-20010904/DTD/svg10.dtd">
<svg version="1.0" xmlns="http://www.w3.org/2000/svg"
 width="288.000000pt" height="288.000000pt" viewBox="0 0 288.000000 288.000000"
 preserveAspectRatio="xMidYMid meet">
<metadata>
Created by potrace 1.14, written by Peter Selinger 2001-2017
</metadata>
<g transform="translate(0.000000,288.000000) scale(0.100000,-0.100000)"
fill="#000000" stroke="none">
<path d="M0 1440 l0 -1440 1440 0 1440 0 0 1440 0 1440 -1440 0 -1440 0 0
-1440z m1616 1075 c478 -84 825 -432 909 -912 60 -341 -68 -714 -331 -964
-242 -230 -596 -339 -920 -284 -235 41 -424 136 -591 298 -168 163 -277 372
-317 606 -67 395 101 811 424 1051 238 176 548 253 826 205z"/>
<path d="M1285 2364 c-104 -19 -162 -38 -260 -86 -246 -121 -421 -338 -497
-617 -30 -109 -30 -343 0 -452 76 -280 239 -483 493 -614 139 -72 253 -98 424
-98 119 0 155 4 236 25 364 98 630 387 694 757 111 634 -456 1198 -1090 1085z
m407 -462 c80 -39 123 -87 144 -161 29 -97 -3 -206 -77 -264 l-31 -24 35 -22
c89 -55 133 -142 125 -248 -8 -108 -59 -184 -157 -233 -80 -40 -159 -50 -418
-50 l-243 0 0 521 0 520 278 -3 278 -3 66 -33z"/>
<path d="M1342 1628 l3 -93 70 0 c95 1 122 9 141 46 21 41 11 92 -23 119 -21
16 -40 20 -110 20 l-84 0 3 -92z"/>
<path d="M1340 1225 l0 -105 83 0 c108 0 153 13 172 50 30 58 13 121 -42 149
-12 6 -65 11 -117 11 l-96 0 0 -105z"/>
</g>
</svg>
